<svg width="404" height="186" viewBox="0 0 404 186" fill="none" xmlns="http://www.w3.org/2000/svg">
<ellipse cx="66.8821" cy="68.5714" rx="66.8821" ry="68.5714" fill="#0D6EFD"/>
<ellipse cx="121.224" cy="154.286" rx="25.0808" ry="25.7143" fill="#0D6EFD"/>
<path d="M185.071 42.6875C185.634 42.6875 186.118 42.7656 186.524 42.9219C186.931 43.0469 187.29 43.2812 187.603 43.625C187.946 43.9688 188.259 44.4219 188.54 44.9844C188.821 45.5469 189.118 46.2344 189.431 47.0469L210.946 104.516C211.103 104.953 211.212 105.344 211.274 105.688C211.337 106.031 211.368 106.375 211.368 106.719C211.368 107.844 211.024 108.672 210.337 109.203C209.681 109.734 208.978 110 208.228 110H181.649C180.837 110 180.149 109.906 179.587 109.719C179.056 109.5 178.603 109.25 178.228 108.969C177.853 108.688 177.556 108.391 177.337 108.078C177.149 107.766 177.024 107.484 176.962 107.234L176.446 105.594H163.274L162.946 107C162.853 107.469 162.743 107.891 162.618 108.266C162.493 108.609 162.337 108.922 162.149 109.203C161.962 109.453 161.696 109.656 161.353 109.812C161.04 109.938 160.618 110 160.087 110H155.259C154.259 110 153.759 109.609 153.759 108.828C153.759 108.547 153.806 108.219 153.899 107.844C154.024 107.438 154.181 106.969 154.368 106.438L173.962 47.1406C174.431 45.6719 174.962 44.5781 175.556 43.8594C176.149 43.1406 176.993 42.75 178.087 42.6875H185.071ZM164.728 99.8281H174.853L169.649 81.5L164.728 99.8281ZM249.964 110H235.372L234.668 105.328C233.985 107.035 232.961 108.357 231.596 109.296C230.273 110.192 228.289 110.64 225.644 110.64C219.03 110.64 215.724 107.077 215.724 99.952V80.688H212.14V79.536H227.628V101.488C227.628 104.048 227.798 105.733 228.14 106.544C228.524 107.355 229.249 107.76 230.316 107.76C231.425 107.76 232.406 107.099 233.26 105.776C234.113 104.453 234.54 102.619 234.54 100.272V80.688H231.596V79.536H246.444V108.848H249.964V110ZM269.194 80.048C267.316 80.048 265.972 81.072 265.162 83.12C264.351 85.168 263.946 88.56 263.946 93.296V96.624C263.946 100.848 264.415 103.877 265.354 105.712C266.292 107.547 268.02 108.464 270.538 108.464C273.055 108.464 275.06 107.611 276.554 105.904C278.047 104.197 279.007 102.256 279.434 100.08L280.586 100.208C279.775 103.877 278.282 106.523 276.106 108.144C273.887 109.808 270.836 110.64 266.954 110.64C262.004 110.64 258.207 109.317 255.562 106.672C252.916 103.984 251.594 100.08 251.594 94.96C251.594 89.7973 253.087 85.8293 256.074 83.056C259.103 80.2827 263.306 78.896 268.682 78.896C272.479 78.896 275.38 79.6427 277.386 81.136C279.391 82.5867 280.394 84.4213 280.394 86.64C280.394 88.8587 279.903 90.48 278.922 91.504C277.983 92.528 276.66 93.04 274.954 93.04C273.29 93.04 271.946 92.592 270.922 91.696C269.898 90.8 269.386 89.4773 269.386 87.728C269.386 86.96 269.492 86.192 269.706 85.424H271.818C272.116 84.5707 272.266 83.8027 272.266 83.12C272.266 81.072 271.242 80.048 269.194 80.048ZM285.411 100.848V80.688H281.891V79.536H285.411V71.28L297.315 68.336V79.536H305.635V80.688H297.315V102.256C297.315 104.261 297.507 105.733 297.891 106.672C298.318 107.611 299.171 108.08 300.451 108.08C301.731 108.08 302.841 107.44 303.779 106.16C304.761 104.88 305.401 103.131 305.699 100.912L306.787 101.04C306.446 103.984 305.507 106.331 303.971 108.08C302.435 109.787 299.897 110.64 296.355 110.64C292.814 110.64 290.105 109.936 288.227 108.528C286.35 107.12 285.411 104.56 285.411 100.848ZM316.807 75.12C314.545 75.12 312.924 74.544 311.943 73.392C311.004 72.24 310.535 70.8107 310.535 69.104C310.535 67.3973 311.047 65.9893 312.071 64.88C313.137 63.7707 314.737 63.216 316.871 63.216C319.004 63.216 320.625 63.728 321.735 64.752C322.844 65.7333 323.399 67.1627 323.399 69.04C323.399 70.8747 322.865 72.3467 321.799 73.456C320.732 74.5653 319.068 75.12 316.807 75.12ZM307.143 79.536H322.823V108.848H326.407V110H307.399V108.848H310.919V80.688H307.143V79.536ZM348.383 97.392V91.952C348.383 87.8133 348.149 84.8053 347.679 82.928C347.253 81.008 346.229 80.048 344.607 80.048C343.669 80.048 342.901 80.3253 342.303 80.88C341.749 81.392 341.343 82.2667 341.087 83.504C340.703 85.424 340.511 88.3467 340.511 92.272V97.264C340.511 101.915 340.639 104.709 340.895 105.648C341.194 106.587 341.493 107.355 341.791 107.952C342.261 108.976 343.178 109.488 344.543 109.488C346.207 109.488 347.295 108.528 347.807 106.608C348.191 105.243 348.383 102.171 348.383 97.392ZM344.415 110.64C339.082 110.64 335.05 109.275 332.319 106.544C329.589 103.813 328.223 99.9093 328.223 94.832C328.223 89.712 329.674 85.7867 332.575 83.056C335.519 80.2827 339.637 78.896 344.927 78.896C350.218 78.896 354.165 80.176 356.767 82.736C359.37 85.2533 360.671 89.1147 360.671 94.32C360.671 105.2 355.253 110.64 344.415 110.64ZM362.589 79.536H378.013V85.424C378.696 83.4613 379.741 81.8827 381.149 80.688C382.557 79.4933 384.691 78.896 387.549 78.896C394.163 78.896 397.469 82.4587 397.469 89.584V108.848H401.053V110H382.941V108.848H385.565V88.048C385.565 85.488 385.395 83.8453 385.053 83.12C384.712 82.352 384.093 81.968 383.197 81.968C381.832 81.968 380.616 82.864 379.549 84.656C378.525 86.448 378.013 88.624 378.013 91.184V108.848H380.765V110H362.589V108.848H366.109V80.688H362.589V79.536Z" fill="#F0F0F0"/>
<path d="M185.071 42.6875C185.634 42.6875 186.118 42.7656 186.524 42.9219C186.931 43.0469 187.29 43.2812 187.603 43.625C187.946 43.9688 188.259 44.4219 188.54 44.9844C188.821 45.5469 189.118 46.2344 189.431 47.0469L210.946 104.516C211.103 104.953 211.212 105.344 211.274 105.688C211.337 106.031 211.368 106.375 211.368 106.719C211.368 107.844 211.024 108.672 210.337 109.203C209.681 109.734 208.978 110 208.228 110H181.649C180.837 110 180.149 109.906 179.587 109.719C179.056 109.5 178.603 109.25 178.228 108.969C177.853 108.688 177.556 108.391 177.337 108.078C177.149 107.766 177.024 107.484 176.962 107.234L176.446 105.594H163.274L162.946 107C162.853 107.469 162.743 107.891 162.618 108.266C162.493 108.609 162.337 108.922 162.149 109.203C161.962 109.453 161.696 109.656 161.353 109.812C161.04 109.938 160.618 110 160.087 110H155.259C154.259 110 153.759 109.609 153.759 108.828C153.759 108.547 153.806 108.219 153.899 107.844C154.024 107.438 154.181 106.969 154.368 106.438L173.962 47.1406C174.431 45.6719 174.962 44.5781 175.556 43.8594C176.149 43.1406 176.993 42.75 178.087 42.6875H185.071ZM164.728 99.8281H174.853L169.649 81.5L164.728 99.8281ZM249.964 110H235.372L234.668 105.328C233.985 107.035 232.961 108.357 231.596 109.296C230.273 110.192 228.289 110.64 225.644 110.64C219.03 110.64 215.724 107.077 215.724 99.952V80.688H212.14V79.536H227.628V101.488C227.628 104.048 227.798 105.733 228.14 106.544C228.524 107.355 229.249 107.76 230.316 107.76C231.425 107.76 232.406 107.099 233.26 105.776C234.113 104.453 234.54 102.619 234.54 100.272V80.688H231.596V79.536H246.444V108.848H249.964V110ZM269.194 80.048C267.316 80.048 265.972 81.072 265.162 83.12C264.351 85.168 263.946 88.56 263.946 93.296V96.624C263.946 100.848 264.415 103.877 265.354 105.712C266.292 107.547 268.02 108.464 270.538 108.464C273.055 108.464 275.06 107.611 276.554 105.904C278.047 104.197 279.007 102.256 279.434 100.08L280.586 100.208C279.775 103.877 278.282 106.523 276.106 108.144C273.887 109.808 270.836 110.64 266.954 110.64C262.004 110.64 258.207 109.317 255.562 106.672C252.916 103.984 251.594 100.08 251.594 94.96C251.594 89.7973 253.087 85.8293 256.074 83.056C259.103 80.2827 263.306 78.896 268.682 78.896C272.479 78.896 275.38 79.6427 277.386 81.136C279.391 82.5867 280.394 84.4213 280.394 86.64C280.394 88.8587 279.903 90.48 278.922 91.504C277.983 92.528 276.66 93.04 274.954 93.04C273.29 93.04 271.946 92.592 270.922 91.696C269.898 90.8 269.386 89.4773 269.386 87.728C269.386 86.96 269.492 86.192 269.706 85.424H271.818C272.116 84.5707 272.266 83.8027 272.266 83.12C272.266 81.072 271.242 80.048 269.194 80.048ZM285.411 100.848V80.688H281.891V79.536H285.411V71.28L297.315 68.336V79.536H305.635V80.688H297.315V102.256C297.315 104.261 297.507 105.733 297.891 106.672C298.318 107.611 299.171 108.08 300.451 108.08C301.731 108.08 302.841 107.44 303.779 106.16C304.761 104.88 305.401 103.131 305.699 100.912L306.787 101.04C306.446 103.984 305.507 106.331 303.971 108.08C302.435 109.787 299.897 110.64 296.355 110.64C292.814 110.64 290.105 109.936 288.227 108.528C286.35 107.12 285.411 104.56 285.411 100.848ZM316.807 75.12C314.545 75.12 312.924 74.544 311.943 73.392C311.004 72.24 310.535 70.8107 310.535 69.104C310.535 67.3973 311.047 65.9893 312.071 64.88C313.137 63.7707 314.737 63.216 316.871 63.216C319.004 63.216 320.625 63.728 321.735 64.752C322.844 65.7333 323.399 67.1627 323.399 69.04C323.399 70.8747 322.865 72.3467 321.799 73.456C320.732 74.5653 319.068 75.12 316.807 75.12ZM307.143 79.536H322.823V108.848H326.407V110H307.399V108.848H310.919V80.688H307.143V79.536ZM348.383 97.392V91.952C348.383 87.8133 348.149 84.8053 347.679 82.928C347.253 81.008 346.229 80.048 344.607 80.048C343.669 80.048 342.901 80.3253 342.303 80.88C341.749 81.392 341.343 82.2667 341.087 83.504C340.703 85.424 340.511 88.3467 340.511 92.272V97.264C340.511 101.915 340.639 104.709 340.895 105.648C341.194 106.587 341.493 107.355 341.791 107.952C342.261 108.976 343.178 109.488 344.543 109.488C346.207 109.488 347.295 108.528 347.807 106.608C348.191 105.243 348.383 102.171 348.383 97.392ZM344.415 110.64C339.082 110.64 335.05 109.275 332.319 106.544C329.589 103.813 328.223 99.9093 328.223 94.832C328.223 89.712 329.674 85.7867 332.575 83.056C335.519 80.2827 339.637 78.896 344.927 78.896C350.218 78.896 354.165 80.176 356.767 82.736C359.37 85.2533 360.671 89.1147 360.671 94.32C360.671 105.2 355.253 110.64 344.415 110.64ZM362.589 79.536H378.013V85.424C378.696 83.4613 379.741 81.8827 381.149 80.688C382.557 79.4933 384.691 78.896 387.549 78.896C394.163 78.896 397.469 82.4587 397.469 89.584V108.848H401.053V110H382.941V108.848H385.565V88.048C385.565 85.488 385.395 83.8453 385.053 83.12C384.712 82.352 384.093 81.968 383.197 81.968C381.832 81.968 380.616 82.864 379.549 84.656C378.525 86.448 378.013 88.624 378.013 91.184V108.848H380.765V110H362.589V108.848H366.109V80.688H362.589V79.536Z" fill="#101935"/>
<path d="M214.953 127.525L234.675 124.401L234.865 125.602L231.199 126.183L234.303 145.779L246.882 143.786L243.778 124.191L240.049 124.781L239.858 123.58L259.644 120.447L259.834 121.648L256.105 122.238L262.732 164.085L266.462 163.494L266.652 164.695L246.867 167.829L246.676 166.628L250.406 166.037L247.142 145.43L234.563 147.422L237.827 168.029L241.493 167.449L241.683 168.65L221.961 171.773L221.771 170.572L225.5 169.982L218.873 128.135L215.143 128.726L214.953 127.525ZM287.058 148.698L286.207 143.325C285.56 139.237 284.858 136.303 284.1 134.522C283.379 132.692 282.217 131.904 280.616 132.158C279.688 132.305 278.973 132.699 278.47 133.34C278.002 133.933 277.739 134.86 277.68 136.122C277.601 138.079 277.868 140.995 278.482 144.872L279.263 149.803C279.991 154.396 280.554 157.137 280.954 158.024C281.396 158.904 281.811 159.616 282.199 160.159C282.823 161.097 283.809 161.459 285.158 161.246C286.801 160.985 287.726 159.867 287.931 157.891C288.097 156.482 287.806 153.418 287.058 148.698ZM285.212 162.403C279.944 163.238 275.748 162.52 272.624 160.25C269.5 157.98 267.54 154.338 266.746 149.323C265.945 144.266 266.764 140.162 269.202 137.011C271.676 133.812 275.526 131.798 280.751 130.97C285.977 130.143 290.075 130.789 293.046 132.911C296.011 134.99 297.9 138.6 298.714 143.741C300.416 154.487 295.916 160.708 285.212 162.403ZM339.914 153.091L325.502 155.374L324.076 150.87C323.669 152.662 322.864 154.129 321.662 155.27C320.496 156.361 318.607 157.114 315.994 157.528C309.462 158.563 305.639 155.561 304.524 148.523L301.51 129.497L297.971 130.057L297.79 128.919L313.088 126.497L316.522 148.178C316.922 150.707 317.354 152.345 317.818 153.092C318.324 153.833 319.104 154.12 320.158 153.953C321.254 153.779 322.119 152.972 322.755 151.533C323.391 150.093 323.526 148.214 323.158 145.896L320.095 126.553L317.187 127.014L317.007 125.876L331.672 123.553L336.257 152.504L339.734 151.954L339.914 153.091ZM342.762 153.288L340.97 141.973L341.729 141.853C343.405 145.346 345.287 147.683 347.375 148.864C349.463 150.046 351.897 150.416 354.679 149.975C358.977 149.295 360.909 147.585 360.476 144.845C360.289 143.665 359.622 142.864 358.475 142.441C356.684 141.774 354.464 141.391 351.813 141.293C348.827 140.988 346.265 140.357 344.126 139.4C341.568 138.25 340.029 136.031 339.508 132.744C338.988 129.457 339.585 126.684 341.301 124.426C343.01 122.125 345.55 120.707 348.922 120.173C350.987 119.846 353.192 119.994 355.536 120.616C356.39 120.826 357.028 120.898 357.45 120.831C357.871 120.764 358.206 120.56 358.454 120.218C358.702 119.877 358.974 119.272 359.268 118.405L359.964 118.295L361.496 127.966L360.737 128.086C357.72 122.948 353.957 120.736 349.448 121.45C347.467 121.764 346.049 122.356 345.193 123.226C344.331 124.054 343.983 124.994 344.15 126.048C344.25 126.68 344.478 127.162 344.833 127.495C345.181 127.785 345.453 128.001 345.648 128.143C345.843 128.285 346.147 128.431 346.56 128.582C346.966 128.691 347.305 128.788 347.578 128.874C347.845 128.919 348.244 128.985 348.776 129.073C349.351 129.155 349.768 129.197 350.027 129.199C353.006 129.462 355.171 129.767 356.522 130.114C357.867 130.42 359.168 130.862 360.426 131.44C362.997 132.674 364.567 135.083 365.134 138.665C365.695 142.204 365.068 145.068 363.255 147.256C361.435 149.402 358.692 150.765 355.025 151.346C352.413 151.76 349.787 151.549 347.15 150.714C346.59 150.457 346.163 150.352 345.868 150.399C344.941 150.546 344.159 151.469 343.521 153.168L342.762 153.288ZM385.341 146.544C379.905 147.405 375.597 146.662 372.418 144.315C369.273 141.918 367.307 138.234 366.52 133.261C365.726 128.246 366.635 124.171 369.249 121.036C371.905 117.894 375.593 115.949 380.312 115.201C389.878 113.686 395.233 117.763 396.375 127.431L378.55 130.254L378.94 132.72C379.594 136.85 380.615 139.885 382.002 141.825C383.389 143.765 385.389 144.528 388.002 144.114C392.89 143.34 395.679 140.22 396.369 134.754L397.537 134.764C397.217 137.925 396.136 140.515 394.296 142.534C392.498 144.547 389.513 145.884 385.341 146.544ZM378.412 128.98L384.923 127.949L384.433 124.852C383.892 121.438 383.314 119.154 382.699 117.998C382.12 116.794 381.219 116.289 379.997 116.482C378.817 116.669 378.039 117.484 377.662 118.926C377.321 120.319 377.408 122.638 377.922 125.883L378.412 128.98Z" fill="#F0F0F0"/>
<path d="M214.953 127.525L234.675 124.401L234.865 125.602L231.199 126.183L234.303 145.779L246.882 143.786L243.778 124.191L240.049 124.781L239.858 123.58L259.644 120.447L259.834 121.648L256.105 122.238L262.732 164.085L266.462 163.494L266.652 164.695L246.867 167.829L246.676 166.628L250.406 166.037L247.142 145.43L234.563 147.422L237.827 168.029L241.493 167.449L241.683 168.65L221.961 171.773L221.771 170.572L225.5 169.982L218.873 128.135L215.143 128.726L214.953 127.525ZM287.058 148.698L286.207 143.325C285.56 139.237 284.858 136.303 284.1 134.522C283.379 132.692 282.217 131.904 280.616 132.158C279.688 132.305 278.973 132.699 278.47 133.34C278.002 133.933 277.739 134.86 277.68 136.122C277.601 138.079 277.868 140.995 278.482 144.872L279.263 149.803C279.991 154.396 280.554 157.137 280.954 158.024C281.396 158.904 281.811 159.616 282.199 160.159C282.823 161.097 283.809 161.459 285.158 161.246C286.801 160.985 287.726 159.867 287.931 157.891C288.097 156.482 287.806 153.418 287.058 148.698ZM285.212 162.403C279.944 163.238 275.748 162.52 272.624 160.25C269.5 157.98 267.54 154.338 266.746 149.323C265.945 144.266 266.764 140.162 269.202 137.011C271.676 133.812 275.526 131.798 280.751 130.97C285.977 130.143 290.075 130.789 293.046 132.911C296.011 134.99 297.9 138.6 298.714 143.741C300.416 154.487 295.916 160.708 285.212 162.403ZM339.914 153.091L325.502 155.374L324.076 150.87C323.669 152.662 322.864 154.129 321.662 155.27C320.496 156.361 318.607 157.114 315.994 157.528C309.462 158.563 305.639 155.561 304.524 148.523L301.51 129.497L297.971 130.057L297.79 128.919L313.088 126.497L316.522 148.178C316.922 150.707 317.354 152.345 317.818 153.092C318.324 153.833 319.104 154.12 320.158 153.953C321.254 153.779 322.119 152.972 322.755 151.533C323.391 150.093 323.526 148.214 323.158 145.896L320.095 126.553L317.187 127.014L317.007 125.876L331.672 123.553L336.257 152.504L339.734 151.954L339.914 153.091ZM342.762 153.288L340.97 141.973L341.729 141.853C343.405 145.346 345.287 147.683 347.375 148.864C349.463 150.046 351.897 150.416 354.679 149.975C358.977 149.295 360.909 147.585 360.476 144.845C360.289 143.665 359.622 142.864 358.475 142.441C356.684 141.774 354.464 141.391 351.813 141.293C348.827 140.988 346.265 140.357 344.126 139.4C341.568 138.25 340.029 136.031 339.508 132.744C338.988 129.457 339.585 126.684 341.301 124.426C343.01 122.125 345.55 120.707 348.922 120.173C350.987 119.846 353.192 119.994 355.536 120.616C356.39 120.826 357.028 120.898 357.45 120.831C357.871 120.764 358.206 120.56 358.454 120.218C358.702 119.877 358.974 119.272 359.268 118.405L359.964 118.295L361.496 127.966L360.737 128.086C357.72 122.948 353.957 120.736 349.448 121.45C347.467 121.764 346.049 122.356 345.193 123.226C344.331 124.054 343.983 124.994 344.15 126.048C344.25 126.68 344.478 127.162 344.833 127.495C345.181 127.785 345.453 128.001 345.648 128.143C345.843 128.285 346.147 128.431 346.56 128.582C346.966 128.691 347.305 128.788 347.578 128.874C347.845 128.919 348.244 128.985 348.776 129.073C349.351 129.155 349.768 129.197 350.027 129.199C353.006 129.462 355.171 129.767 356.522 130.114C357.867 130.42 359.168 130.862 360.426 131.44C362.997 132.674 364.567 135.083 365.134 138.665C365.695 142.204 365.068 145.068 363.255 147.256C361.435 149.402 358.692 150.765 355.025 151.346C352.413 151.76 349.787 151.549 347.15 150.714C346.59 150.457 346.163 150.352 345.868 150.399C344.941 150.546 344.159 151.469 343.521 153.168L342.762 153.288ZM385.341 146.544C379.905 147.405 375.597 146.662 372.418 144.315C369.273 141.918 367.307 138.234 366.52 133.261C365.726 128.246 366.635 124.171 369.249 121.036C371.905 117.894 375.593 115.949 380.312 115.201C389.878 113.686 395.233 117.763 396.375 127.431L378.55 130.254L378.94 132.72C379.594 136.85 380.615 139.885 382.002 141.825C383.389 143.765 385.389 144.528 388.002 144.114C392.89 143.34 395.679 140.22 396.369 134.754L397.537 134.764C397.217 137.925 396.136 140.515 394.296 142.534C392.498 144.547 389.513 145.884 385.341 146.544ZM378.412 128.98L384.923 127.949L384.433 124.852C383.892 121.438 383.314 119.154 382.699 117.998C382.12 116.794 381.219 116.289 379.997 116.482C378.817 116.669 378.039 117.484 377.662 118.926C377.321 120.319 377.408 122.638 377.922 125.883L378.412 128.98Z" fill="#101935"/>
</svg>
